Coordinates
version=1
nRows=13
nColumns=36
inDegrees=yes

Units are S.I. units (second, meters, Newtons, ...)
If the header above contains a line with 'inDegrees', this indicates whether rotational values are in degrees (yes) or radians (no).

endheader
time	pelvis_tilt	pelvis_list	pelvis_rotation	pelvis_tx	pelvis_ty	pelvis_tz	hip_flexion_r	hip_adduction_r	hip_rotation_r	knee_angle_r	knee_angle_r_beta	ankle_angle_r	subtalar_angle_r	mtp_angle_r	hip_flexion_l	hip_adduction_l	hip_rotation_l	knee_angle_l	knee_angle_l_beta	ankle_angle_l	subtalar_angle_l	mtp_angle_l	lumbar_extension	lumbar_bending	lumbar_rotation	arm_flex_r	arm_add_r	arm_rot_r	elbow_flex_r	pro_sup_r	arm_flex_l	arm_add_l	arm_rot_l	elbow_flex_l	pro_sup_l
      2.89583330	      2.86063681	     -0.02968201	     -0.60979157	      0.00735655	      0.88798931	     -0.05142157	     35.14961456	     -4.26089451	      1.27215277	     32.03688146	      0.55914906	      2.81004143	    -12.23762912	     -7.49999987	     36.91580899	     -4.99026608	     -1.88892671	     34.82774419	      0.60785881	     -3.13777382	     -7.28631774	     -7.49999987	    -33.83481864	      2.96262991	      8.90095361	    -41.05522309	     -5.17027694	     13.69216487	      8.49266905	     61.17709159	    -33.91983745	    -13.18546505	    109.11934822	     23.16505436	     16.07560937
      2.90000000	      3.43515886	     -0.20948968	     -0.52118822	      0.00963957	      0.87840815	     -0.05339858	     36.90420336	     -4.00959011	      1.91502839	     36.36204661	      0.63463744	      2.98325988	    -12.87987094	     -7.49999987	     38.81333477	     -5.06220836	     -0.49639693	     39.05015798	      0.68155383	     -3.53502835	     -8.34149681	     -7.49999987	    -35.62031740	      3.06028749	      9.83776165	    -38.89117087	     -5.60775792	     13.52681380	      9.36569779	     60.81884151	    -31.09425162	    -13.55932744	    109.34020657	     23.78349057	     20.14068989
      2.90416670	      3.81628078	     -0.18982902	     -0.22343650	      0.01179666	      0.87442854	     -0.05282830	     38.59127320	     -3.93536638	      2.51327777	     40.34571109	      0.70416550	      4.03362382	    -13.16268289	     -7.49999987	     40.63954132	     -4.69372018	      1.03912605	     42.97998305	      0.75014222	     -3.39433141	     -9.51670391	     -7.49999987	    -36.90189700	      2.76872613	      8.82673138	    -35.25231856	     -6.74644316	     12.63092709	      9.25206918	     60.59661825	    -29.02065600	    -12.68640831	    110.40243265	     23.13851274	     19.20331764
      2.90833330	      4.62962915	     -0.12015085	      0.01639247	      0.01206012	      0.86901573	     -0.05176222	     39.53867929	     -3.81453148	      3.11828811	     43.81021128	      0.76463243	      5.45876776	    -13.31743848	     -7.49999987	     41.86601307	     -4.46201267	      2.17902382	     46.72157311	      0.81544528	     -2.39966974	    -10.17014030	     -7.49999987	    -39.04876924	      2.46610401	      8.08841250	    -31.69411184	     -7.69469457	     11.47509791	      9.30134501	     60.33552237	    -26.41774853	    -12.65421393	    110.03721066	     23.13384191	     19.52039412
      2.91250000	      5.51616265	     -0.05576213	      0.08442176	      0.01546028	      0.86035532	     -0.05259351	     40.46746148	     -3.72091160	      3.69288407	     47.28447961	      0.82526985	      6.68572171	    -13.93483645	     -7.49999987	     42.92539814	     -4.32319074	      2.98092671	     50.29784925	      0.87786308	     -1.01114940	    -10.86635936	     -7.49999987	    -41.20945014	      2.28270700	      7.66287746	    -29.02037882	     -8.78073298	     11.11019835	     10.44732321	     60.23630281	    -23.81360593	    -12.85821953	    109.91006189	     23.18681047	     19.66709742
      2.91666670	      5.93814807	      0.26852741	      0.17459498	      0.01698421	      0.85442597	     -0.05361325	     41.64493269	     -3.96101620	      4.30910257	     50.40409095	      0.87971734	      7.96214226	    -14.31449977	     -7.49999987	     43.97279153	     -4.02209133	      3.01319026	     53.05364576	      0.92596080	      0.77313926	    -10.87938931	     -7.49999987	    -42.90376131	      1.76685426	      6.05425971	    -25.25655898	     -9.85150241	      9.27655229	     10.51668637	     59.65491719	    -21.29770862	    -12.82017640	    109.19817274	     23.15912195	     18.46884228
      2.92083330	      6.66279773	      0.23763443	      0.22948034	      0.02027537	      0.84897156	     -0.05430646	     41.87142019	     -3.83431892	      4.63881248	     52.49180041	      0.91615475	      8.58731798	    -15.08529521	     -7.49999987	     44.35195365	     -3.98408630	      3.19336992	     55.29164027	      0.96502117	      1.69887754	    -11.57900322	     -7.49999987	    -45.07367777	      1.64234638	      5.06420988	    -21.86124694	    -10.11173350	      0.92606233	     11.25347213	     57.60887431	    -19.37772067	    -12.97429996	    102.44614903	     22.17532285	     13.35226833
      2.92500000	      7.39466066	      0.26081985	      0.37529387	      0.02100681	      0.84532739	     -0.05550934	     41.66396954	     -3.84455175	      4.86311814	     53.67586252	      0.93682053	      8.74695694	    -15.37454717	     -7.49999987	     44.47678617	     -3.84130966	      3.24894627	     56.98030541	      0.99449394	      1.59741826	    -12.49752829	     -7.49999987	    -47.26459921	      1.48698960	      3.94122252	    -18.56011453	    -10.72917591	     -2.59148941	     12.80628404	     57.54648271	    -17.05373431	    -13.26012076	     96.42028022	     20.89053691	     12.22897322
      2.92916670	      8.10873684	      0.19751329	      0.43233410	      0.02183502	      0.83841298	     -0.05550556	     41.55896300	     -3.70266427	      5.10398207	     54.91968285	      0.95852929	      8.56423972	    -15.70538973	     -7.49999987	     44.45248858	     -3.76563072	      3.37117658	     58.23928365	      1.01646725	      1.21896661	    -13.53353842	     -7.49999987	    -49.56070936	      1.76725665	      3.15147307	    -15.73865720	    -11.53235228	     -5.24595765	     15.41418307	     58.01957805	    -14.92001717	    -13.48296480	     86.43794092	     19.25154901	     12.51043760
      2.93333330	      8.98246650	      0.10002942	      0.46083072	      0.02251959	      0.83452236	     -0.05330332	     41.22738948	     -3.37818334	      5.43771929	     56.05618240	      0.97836495	      8.72901519	    -15.80644947	     -7.49999987	     44.25292183	     -3.85641261	      3.50520386	     59.32190353	      1.03536254	      0.65859925	    -14.09882302	     -7.49999987	    -51.90719241	      1.89889643	      2.03532677	    -12.20619583	    -12.09322312	     -6.07061860	     17.56633439	     60.53851373	    -13.05330770	    -13.84854409	     73.86447063	     17.40720470	     19.49530399
      2.93750000	      9.75839897	      0.00909156	      0.46695390	      0.02235678	      0.83017153	     -0.05242240	     41.03234845	     -3.00082078	      5.64466964	     57.22353842	      0.99873916	      8.82289959	    -15.99778732	     -7.49999987	     44.17719136	     -3.95925178	      3.73315955	     60.39341610	      1.05406396	      0.28721094	    -14.42161537	     -7.49999987	    -54.33955191	      2.25585198	      2.27760554	     -9.96773263	    -12.53352619	     -6.62009458	     21.01173282	     60.45381285	     -9.28364982	    -14.72339441	     68.98489137	     16.61968164	     18.39058358
      2.94166670	     10.26075729	     -0.00023506	      0.52723711	      0.02462051	      0.82641159	     -0.05101560	     41.21201735	     -2.66900093	      5.97067492	     58.56178279	      1.02209593	      9.37995857	    -16.42375513	     -7.49999987	     44.31905212	     -4.01688421	      3.92165917	     61.59399222	      1.07501796	      0.71113313	    -14.13584696	     -7.49999987	    -56.32007942	      2.35964029	      1.78940692	     -6.51504165	    -12.23990336	     -9.59250533	     22.01110253	     60.92265809	     -7.41544790	    -14.92115638	     52.43043788	     16.55550413	     20.17699471
      2.94583330	     10.80749747	     -0.11551406	      0.58567405	      0.02410100	      0.82095278	     -0.05157611	     41.43393595	     -2.40631405	      6.00761233	     59.93364728	      1.04603948	      9.88235057	    -17.37620768	     -7.49999987	     44.53465879	     -4.16822359	      4.12099325	     62.97677483	      1.09915207	      1.14906287	    -14.33516376	     -7.49999987	    -58.37698110	      2.71494872	      1.88919281	     -4.14804335	    -12.28362632	    -11.59333178	     24.65045950	     64.75629314	     -4.85887458	    -14.58748317	     35.88289025	     16.61700940	     31.68248796
